<svg xmlns="http://www.w3.org/2000/svg" version="1.1" xmlns:xlink="http://www.w3.org/1999/xlink" xmlns:svgjs="http://svgjs.dev/svgjs" viewBox="0 0 800 800"><defs><radialGradient id="cccircular-grad" r="50%" cx="50%" cy="50%">
        <stop offset="70%" stop-color="hsl(352, 100%, 76%)" stop-opacity="0"></stop>
        <stop offset="97%" stop-color="#c95567" stop-opacity="1"></stop>
      </radialGradient></defs><g fill="url(#cccircular-grad)"><circle r="14442" cx="400" cy="400" opacity="0.89"></circle><circle r="14276" cx="400" cy="400" opacity="0.79"></circle><circle r="14110" cx="400" cy="400" opacity="0.87"></circle><circle r="13944" cx="400" cy="400" opacity="0.69"></circle><circle r="13778" cx="400" cy="400" opacity="0.75"></circle><circle r="13612" cx="400" cy="400" opacity="0.86"></circle><circle r="13446" cx="400" cy="400" opacity="0.93"></circle><circle r="13280" cx="400" cy="400" opacity="0.42"></circle><circle r="13114" cx="400" cy="400" opacity="0.94"></circle><circle r="12948" cx="400" cy="400" opacity="0.97"></circle><circle r="12782" cx="400" cy="400" opacity="0.22"></circle><circle r="12616" cx="400" cy="400" opacity="0.52"></circle><circle r="12450" cx="400" cy="400" opacity="0.14"></circle><circle r="12284" cx="400" cy="400" opacity="0.12"></circle><circle r="12118" cx="400" cy="400" opacity="0.69"></circle><circle r="11952" cx="400" cy="400" opacity="0.39"></circle><circle r="11786" cx="400" cy="400" opacity="0.27"></circle><circle r="11620" cx="400" cy="400" opacity="0.82"></circle><circle r="11454" cx="400" cy="400" opacity="0.09"></circle><circle r="11288" cx="400" cy="400" opacity="0.74"></circle><circle r="11122" cx="400" cy="400" opacity="0.18"></circle><circle r="10956" cx="400" cy="400" opacity="0.83"></circle><circle r="10790" cx="400" cy="400" opacity="0.55"></circle><circle r="10624" cx="400" cy="400" opacity="0.94"></circle><circle r="10458" cx="400" cy="400" opacity="0.38"></circle><circle r="10292" cx="400" cy="400" opacity="0.17"></circle><circle r="10126" cx="400" cy="400" opacity="0.97"></circle><circle r="9960" cx="400" cy="400" opacity="0.72"></circle><circle r="9794" cx="400" cy="400" opacity="0.27"></circle><circle r="9628" cx="400" cy="400" opacity="0.58"></circle><circle r="9462" cx="400" cy="400" opacity="0.69"></circle><circle r="9296" cx="400" cy="400" opacity="0.17"></circle><circle r="9130" cx="400" cy="400" opacity="0.87"></circle><circle r="8964" cx="400" cy="400" opacity="0.99"></circle><circle r="8798" cx="400" cy="400" opacity="0.81"></circle><circle r="8632" cx="400" cy="400" opacity="0.98"></circle><circle r="8466" cx="400" cy="400" opacity="0.51"></circle><circle r="8300" cx="400" cy="400" opacity="0.92"></circle><circle r="8134" cx="400" cy="400" opacity="0.63"></circle><circle r="7968" cx="400" cy="400" opacity="0.81"></circle><circle r="7802" cx="400" cy="400" opacity="0.10"></circle><circle r="7636" cx="400" cy="400" opacity="0.49"></circle><circle r="7470" cx="400" cy="400" opacity="0.45"></circle><circle r="7304" cx="400" cy="400" opacity="0.20"></circle><circle r="7138" cx="400" cy="400" opacity="0.30"></circle><circle r="6972" cx="400" cy="400" opacity="0.41"></circle><circle r="6806" cx="400" cy="400" opacity="0.43"></circle><circle r="6640" cx="400" cy="400" opacity="0.43"></circle><circle r="6474" cx="400" cy="400" opacity="0.13"></circle><circle r="6308" cx="400" cy="400" opacity="0.29"></circle><circle r="6142" cx="400" cy="400" opacity="0.86"></circle><circle r="5976" cx="400" cy="400" opacity="0.76"></circle><circle r="5810" cx="400" cy="400" opacity="0.93"></circle><circle r="5644" cx="400" cy="400" opacity="0.36"></circle><circle r="5478" cx="400" cy="400" opacity="0.72"></circle><circle r="5312" cx="400" cy="400" opacity="0.91"></circle><circle r="5146" cx="400" cy="400" opacity="0.32"></circle><circle r="4980" cx="400" cy="400" opacity="0.46"></circle><circle r="4814" cx="400" cy="400" opacity="0.18"></circle><circle r="4648" cx="400" cy="400" opacity="0.25"></circle><circle r="4482" cx="400" cy="400" opacity="0.08"></circle><circle r="4316" cx="400" cy="400" opacity="0.31"></circle><circle r="4150" cx="400" cy="400" opacity="0.97"></circle><circle r="3984" cx="400" cy="400" opacity="0.49"></circle><circle r="3818" cx="400" cy="400" opacity="0.99"></circle><circle r="3652" cx="400" cy="400" opacity="0.65"></circle><circle r="3486" cx="400" cy="400" opacity="0.33"></circle><circle r="3320" cx="400" cy="400" opacity="0.46"></circle><circle r="3154" cx="400" cy="400" opacity="0.20"></circle><circle r="2988" cx="400" cy="400" opacity="0.83"></circle><circle r="2822" cx="400" cy="400" opacity="0.92"></circle><circle r="2656" cx="400" cy="400" opacity="0.84"></circle><circle r="2490" cx="400" cy="400" opacity="0.88"></circle><circle r="2324" cx="400" cy="400" opacity="0.71"></circle><circle r="2158" cx="400" cy="400" opacity="0.88"></circle><circle r="1992" cx="400" cy="400" opacity="0.27"></circle><circle r="1826" cx="400" cy="400" opacity="0.94"></circle><circle r="1660" cx="400" cy="400" opacity="0.14"></circle><circle r="1494" cx="400" cy="400" opacity="0.63"></circle><circle r="1328" cx="400" cy="400" opacity="0.33"></circle><circle r="1162" cx="400" cy="400" opacity="0.55"></circle><circle r="996" cx="400" cy="400" opacity="0.92"></circle><circle r="830" cx="400" cy="400" opacity="0.41"></circle><circle r="664" cx="400" cy="400" opacity="0.79"></circle><circle r="498" cx="400" cy="400" opacity="0.43"></circle><circle r="332" cx="400" cy="400" opacity="0.97"></circle></g></svg>